<mxfile host="65bd71144e">
    <diagram id="TgCLWjb0wF8PU98DGxcL" name="Page-1">
        <mxGraphModel dx="2860" dy="2252" grid="1" gridSize="10" guides="1" tooltips="1" connect="1" arrows="1" fold="1" page="1" pageScale="1" pageWidth="850" pageHeight="1100" math="0" shadow="0">
            <root>
                <mxCell id="0"/>
                <mxCell id="1" parent="0"/>
                <mxCell id="2" value="&lt;div&gt;Property or attribute&lt;/div&gt;" style="whiteSpace=wrap;html=1;aspect=fixed;fontFamily=Verdana;fillColor=#d5e8d4;strokeColor=#82b366;" vertex="1" parent="1">
                    <mxGeometry x="-850" y="-837" width="90" height="90" as="geometry"/>
                </mxCell>
                <mxCell id="3" value="of" style="whiteSpace=wrap;html=1;aspect=fixed;fontFamily=Verdana;" vertex="1" parent="1">
                    <mxGeometry x="-723" y="-837" width="90" height="90" as="geometry"/>
                </mxCell>
                <mxCell id="4" value="an object of interest" style="whiteSpace=wrap;html=1;aspect=fixed;fontFamily=Verdana;fillColor=#f8cecc;strokeColor=#b85450;" vertex="1" parent="1">
                    <mxGeometry x="-597" y="-837" width="90" height="90" as="geometry"/>
                </mxCell>
                <mxCell id="5" value="in relation to" style="whiteSpace=wrap;html=1;aspect=fixed;fontFamily=Verdana;fillColor=#dae8fc;strokeColor=#6c8ebf;" vertex="1" parent="1">
                    <mxGeometry x="-470" y="-837" width="90" height="90" as="geometry"/>
                </mxCell>
                <mxCell id="6" value="an environmental matrix" style="whiteSpace=wrap;html=1;aspect=fixed;fontFamily=Verdana;fillColor=#647687;strokeColor=#314354;fontColor=#ffffff;" vertex="1" parent="1">
                    <mxGeometry x="-343" y="-837" width="90" height="90" as="geometry"/>
                </mxCell>
                <mxCell id="7" value="by" style="whiteSpace=wrap;html=1;aspect=fixed;fontFamily=Verdana;" vertex="1" parent="1">
                    <mxGeometry x="-217" y="-837" width="90" height="90" as="geometry"/>
                </mxCell>
                <mxCell id="8" value="method" style="whiteSpace=wrap;html=1;aspect=fixed;fontFamily=Verdana;fillColor=#e1d5e7;strokeColor=#9673a6;" vertex="1" parent="1">
                    <mxGeometry x="-90" y="-837" width="90" height="90" as="geometry"/>
                </mxCell>
                <mxCell id="9" value="&lt;div&gt;&lt;font style=&quot;font-size: 24px;&quot;&gt;1.&lt;/font&gt;&lt;/div&gt;" style="text;html=1;strokeColor=none;fillColor=none;align=center;verticalAlign=middle;whiteSpace=wrap;rounded=0;" vertex="1" parent="1">
                    <mxGeometry x="-825" y="-867" width="40" height="30" as="geometry"/>
                </mxCell>
                <mxCell id="10" value="&lt;div&gt;&lt;font style=&quot;font-size: 24px;&quot;&gt;2.&lt;/font&gt;&lt;/div&gt;" style="text;html=1;strokeColor=none;fillColor=none;align=center;verticalAlign=middle;whiteSpace=wrap;rounded=0;" vertex="1" parent="1">
                    <mxGeometry x="-572" y="-867" width="40" height="30" as="geometry"/>
                </mxCell>
                <mxCell id="11" value="&lt;div&gt;&lt;font style=&quot;font-size: 24px;&quot;&gt;3.&lt;/font&gt;&lt;/div&gt;" style="text;html=1;strokeColor=none;fillColor=none;align=center;verticalAlign=middle;whiteSpace=wrap;rounded=0;" vertex="1" parent="1">
                    <mxGeometry x="-445" y="-867" width="40" height="30" as="geometry"/>
                </mxCell>
                <mxCell id="12" value="&lt;div&gt;&lt;font style=&quot;font-size: 24px;&quot;&gt;4.&lt;/font&gt;&lt;/div&gt;" style="text;html=1;strokeColor=none;fillColor=none;align=center;verticalAlign=middle;whiteSpace=wrap;rounded=0;" vertex="1" parent="1">
                    <mxGeometry x="-318" y="-867" width="40" height="30" as="geometry"/>
                </mxCell>
                <mxCell id="13" value="&lt;div&gt;&lt;font style=&quot;font-size: 24px;&quot;&gt;5.&lt;/font&gt;&lt;/div&gt;" style="text;html=1;strokeColor=none;fillColor=none;align=center;verticalAlign=middle;whiteSpace=wrap;rounded=0;" vertex="1" parent="1">
                    <mxGeometry x="-65" y="-867" width="40" height="30" as="geometry"/>
                </mxCell>
            </root>
        </mxGraphModel>
    </diagram>
</mxfile>